<?xml version="1.0" encoding="iso-8859-1"?>
<!-- Generator: Adobe Illustrator 18.0.0, SVG Export Plug-In . SVG Version: 6.00 Build 0)  -->
<!DOCTYPE svg PUBLIC "-//W3C//DTD SVG 1.1//EN" "http://www.w3.org/Graphics/SVG/1.1/DTD/svg11.dtd">
<svg version="1.1" id="Capa_1" xmlns="http://www.w3.org/2000/svg" xmlns:xlink="http://www.w3.org/1999/xlink" x="0px" y="0px"
	 viewBox="0 0 460 460" style="enable-background:new 0 0 460 460;" xml:space="preserve">
<g id="XMLID_1024_">
	<g id="XMLID_4_">
		<rect id="XMLID_6_" x="0" y="171.343" style="fill:#A38671;" width="182.3" height="84.599"/>
		<rect id="XMLID_8_" x="0" y="271.344" style="fill:#A38671;" width="90.299" height="74.598"/>
		<rect id="XMLID_975_" x="197.701" y="171.343" style="fill:#A38671;" width="262.299" height="84.599"/>
		<rect id="XMLID_982_" x="0" y="361.343" style="fill:#A38671;" width="182.3" height="82.299"/>
		<polygon id="XMLID_2053_" style="fill:#A38671;" points="90.299,73.643 90.299,73.643 0,73.643 0,155.942 90.299,155.942 		"/>
		<polygon id="XMLID_2054_" style="fill:#A38671;" points="105.701,155.942 460,155.942 460,73.643 105.701,73.643 105.701,73.643 
					"/>
		<rect id="XMLID_2055_" x="105.701" y="271.344" style="fill:#A38671;" width="176.598" height="74.598"/>
		<rect id="XMLID_2056_" x="297.701" y="271.344" style="fill:#A38671;" width="162.299" height="74.598"/>
		<rect id="XMLID_2057_" x="197.701" y="361.343" style="fill:#A38671;" width="154.597" height="82.299"/>
		<rect id="XMLID_2058_" x="367.701" y="361.343" style="fill:#A38671;" width="92.299" height="82.299"/>
		<path id="XMLID_2070_" style="fill:#F0DEB4;" d="M297.701,271.344H460v-15.402H197.701v-84.599H460v-15.402H105.701V73.643v0
			H90.299v0v82.299H0v15.402h182.3v84.599H0v15.402h90.299v74.598H0v15.402h182.3v82.299h15.402v-82.299h154.597v82.299h15.402
			v-82.299H460v-15.402H297.701V271.344z M282.299,345.942H105.701v-74.598h176.598V345.942z"/>
	</g>
	<g id="XMLID_974_">
		<path id="XMLID_1924_" style="fill:#F9B65F;" d="M309.112,16.357c0,0-96.69,101.945-89.469,193.569
			c7.221,91.624,98.331,112.317,158.006,71.712c31.548-21.466,57.509-68.517,32.056-157.42l-38.914,23.278
			C370.791,147.495,367.252,51.232,309.112,16.357z"/>
	</g>
	<g id="XMLID_2124_" style="opacity:0.49;">
		<path id="XMLID_2126_" style="fill:#D0D5D9;" d="M409.705,124.218l-19.123,11.439c13.082,71.108-10.569,110.481-38.648,129.587
			c-30.933,21.048-70.31,25.618-102.073,12.384c33.504,30.902,87.728,31.269,127.788,4.011
			C409.197,260.172,435.158,213.121,409.705,124.218z"/>
	</g>
	<g id="XMLID_972_">
		<path id="XMLID_1923_" style="fill:#F86E51;" d="M307.175,106.882c0,0-64.42,67.921-59.609,128.966
			c4.811,61.045,65.513,74.831,105.272,47.778c21.019-14.302,38.315-45.65,21.358-104.882l-38.393,33.019
			C335.803,211.764,345.911,130.118,307.175,106.882z"/>
	</g>
	<path id="XMLID_2153_" style="opacity:0.84;fill:#D0D5D9;" d="M366.069,256.466c-39.759,27.053-100.461,13.267-105.272-47.778
		c-1.339-16.987,2.687-34.505,9.19-50.945c-13.281,23.133-24.535,51.282-22.421,78.106c4.811,61.045,65.513,74.831,105.272,47.778
		c11.102-7.554,21.16-19.869,25.686-38.531C374.723,249.7,370.481,253.464,366.069,256.466z"/>
</g>
<g>
</g>
<g>
</g>
<g>
</g>
<g>
</g>
<g>
</g>
<g>
</g>
<g>
</g>
<g>
</g>
<g>
</g>
<g>
</g>
<g>
</g>
<g>
</g>
<g>
</g>
<g>
</g>
<g>
</g>
</svg>
