<?xml version="1.0" encoding="iso-8859-1"?>
<!-- Generator: Adobe Illustrator 19.0.0, SVG Export Plug-In . SVG Version: 6.00 Build 0)  -->
<svg version="1.1" id="Layer_1" xmlns="http://www.w3.org/2000/svg" xmlns:xlink="http://www.w3.org/1999/xlink" x="0px" y="0px"
	 viewBox="0 0 511.999 511.999" style="enable-background:new 0 0 511.999 511.999;" xml:space="preserve">
<path style="fill:#CCD8E5;" d="M503.666,66.8v316.343c0,17.909-14.509,32.429-32.418,32.429H40.755
	c-17.909,0-32.418-14.52-32.418-32.429V66.8c0-17.909,14.509-32.429,32.418-32.429h430.493
	C489.157,34.371,503.666,48.891,503.666,66.8z"/>
<path style="fill:#DFEAF4;" d="M503.666,66.8v316.343c0,17.909-14.509,32.429-32.418,32.429H183.346l23.752-57.925L339.656,34.371
	h131.592C489.157,34.371,503.666,48.891,503.666,66.8z"/>
<path style="fill:#B8E9F2;" d="M503.666,66.8v290.847H8.338V66.8c0-17.909,14.509-32.429,32.418-32.429h430.493
	C489.157,34.371,503.666,48.891,503.666,66.8z"/>
<path style="fill:#D4F7FC;" d="M503.666,66.8v290.847H207.098L339.656,34.371h131.592C489.157,34.371,503.666,48.891,503.666,66.8z"
	/>
<polygon style="fill:#CCD8E5;" points="343.456,480.173 168.548,480.173 181.035,450.955 196.166,415.571 315.837,415.571 
	330.969,450.955 "/>
<polygon style="fill:#BAC6D1;" points="330.969,450.955 181.035,450.955 196.166,415.571 315.837,415.571 "/>
<g>
	<rect x="67.146" y="216.479" style="fill:#609DC6;" width="36.661" height="107.762"/>
	<rect x="408.207" y="180.929" style="fill:#609DC6;" width="36.661" height="143.312"/>
	<rect x="339.995" y="262.028" style="fill:#609DC6;" width="36.661" height="62.213"/>
	<rect x="271.772" y="202.037" style="fill:#609DC6;" width="36.661" height="122.204"/>
	<rect x="203.57" y="108.717" style="fill:#609DC6;" width="36.661" height="215.524"/>
	<rect x="135.347" y="166.486" style="fill:#609DC6;" width="36.661" height="157.755"/>
</g>
<path d="M103.802,331.297c4.603,0,8.332-3.731,8.332-8.332V215.203c0-4.602-3.729-8.332-8.332-8.332H67.14
	c-4.603,0-8.332,3.731-8.332,8.332v107.762c0,4.602,3.729,8.332,8.332,8.332H103.802z M75.472,223.535h19.997v91.098H75.472V223.535
	z"/>
<path d="M408.202,272.417c-4.603,0-8.332,3.731-8.332,8.332v42.216c0,4.602,3.729,8.332,8.332,8.332h36.661
	c4.603,0,8.332-3.731,8.332-8.332V179.652c0-4.602-3.729-8.332-8.332-8.332h-36.661c-4.603,0-8.332,3.731-8.332,8.332v73.323
	c0,4.602,3.729,8.332,8.332,8.332c4.603,0,8.332-3.731,8.332-8.332v-64.991h19.997v126.648h-19.997v-33.884
	C416.534,276.147,412.803,272.417,408.202,272.417z"/>
<path d="M376.65,331.297c4.603,0,8.332-3.731,8.332-8.332v-62.213c0-4.602-3.729-8.332-8.332-8.332h-36.661
	c-4.603,0-8.332,3.731-8.332,8.332v62.213c0,4.602,3.729,8.332,8.332,8.332H376.65z M348.32,269.084h19.997v45.549H348.32V269.084z"
	/>
<path d="M308.438,331.297c4.603,0,8.332-3.731,8.332-8.332V200.76c0-4.602-3.729-8.332-8.332-8.332h-36.661
	c-4.603,0-8.332,3.731-8.332,8.332v122.204c0,4.602,3.729,8.332,8.332,8.332H308.438z M280.109,209.092h19.997v105.54h-19.997
	V209.092L280.109,209.092z"/>
<path d="M240.225,131.326c4.603,0,8.332-3.731,8.332-8.332V107.44c0-4.602-3.729-8.332-8.332-8.332h-36.661
	c-4.603,0-8.332,3.731-8.332,8.332v215.524c0,4.602,3.729,8.332,8.332,8.332h36.661c4.603,0,8.332-3.731,8.332-8.332V150.768
	c0-4.602-3.729-8.332-8.332-8.332c-4.603,0-8.332,3.731-8.332,8.332v163.865h-19.997v-198.86h19.997v7.221
	C231.893,127.595,235.624,131.326,240.225,131.326z"/>
<path d="M172.014,331.297c4.603,0,8.332-3.731,8.332-8.332V165.21c0-4.602-3.729-8.332-8.332-8.332h-36.661
	c-4.603,0-8.332,3.731-8.332,8.332v157.755c0,4.602,3.729,8.332,8.332,8.332H172.014z M143.685,173.542h19.997v141.091h-19.997
	V173.542z"/>
<path d="M471.246,24.766H40.754C18.283,24.766,0,43.049,0,65.52v59.227c0,4.602,3.731,8.332,8.332,8.332s8.332-3.731,8.332-8.332
	V65.52c0-13.284,10.807-24.09,24.09-24.09h430.492c13.284,0,24.09,10.807,24.09,24.09v284.411h-52.21
	c-4.602,0-8.332,3.731-8.332,8.332s3.731,8.332,8.332,8.332h52.21v15.273c0,13.284-10.807,24.09-24.09,24.09h-155.41H196.164H40.754
	c-13.284,0-24.09-10.807-24.09-24.09v-15.273h398.688c4.602,0,8.332-3.731,8.332-8.332s-3.731-8.332-8.332-8.332H16.664V152.522
	c0-4.602-3.731-8.332-8.332-8.332S0,147.92,0,152.522v229.348c0,22.472,18.283,40.754,40.754,40.754H183.54l-20.494,47.945h-40.034
	c-4.602,0-8.332,3.731-8.332,8.332s3.731,8.332,8.332,8.332h265.975c4.602,0,8.332-3.731,8.332-8.332s-3.731-8.332-8.332-8.332
	h-40.034l-20.494-47.945h142.786c22.472,0,40.754-18.282,40.754-40.754V65.52C512,43.049,493.717,24.766,471.246,24.766z
	 M330.83,470.568H181.17l14.238-33.31h121.185L330.83,470.568z"/>
<path d="M253.972,376.221c-3.517,0.879-6.116,4.048-6.291,7.67c-0.364,7.534,9.106,11.629,14.329,6.171
	c2.663-2.782,3.078-7.177,0.913-10.385C261.01,376.772,257.341,375.379,253.972,376.221z"/>
<g>
</g>
<g>
</g>
<g>
</g>
<g>
</g>
<g>
</g>
<g>
</g>
<g>
</g>
<g>
</g>
<g>
</g>
<g>
</g>
<g>
</g>
<g>
</g>
<g>
</g>
<g>
</g>
<g>
</g>
</svg>
